<svg fill="none" height="41" viewBox="0 0 41 41" width="41" xmlns="http://www.w3.org/2000/svg" xmlns:xlink="http://www.w3.org/1999/xlink"><clipPath id="a"><path d="m.499817.5h40v40h-40z"/></clipPath><mask id="b" height="41" maskUnits="userSpaceOnUse" width="41" x="0" y="0"><path d="m40.4998.5h-39.999983v40h39.999983z" fill="#fff"/></mask><g clip-path="url(#a)"><g mask="url(#b)"><path d="m5.49982 15.5c-2.75 0-5.000003 2.25-5.000003 5s2.250003 5 5.000003 5c2.74999 0 4.99998-2.25 4.99998-5s-2.24999-5-4.99998-5zm29.99998 0c-2.75 0-5 2.25-5 5s2.25 5 5 5 5-2.25 5-5-2.25-5-5-5zm-15 0c-2.75 0-5 2.25-5 5s2.25 5 5 5 5-2.25 5-5-2.25-5-5-5z" fill="#66f"/></g></g></svg>