<svg fill="none" height="53" viewBox="0 0 53 53" width="53" xmlns="http://www.w3.org/2000/svg" xmlns:xlink="http://www.w3.org/1999/xlink"><mask id="a" height="53" maskUnits="userSpaceOnUse" width="53" x="0" y="0"><path d="m53 0h-53v53h53z" fill="#fff"/></mask><g mask="url(#a)" stroke="#6666fe" stroke-width="2"><path d="m26.5008 16.7833c3.9028 0 7.0666-3.1638 7.0666-7.06664 0-3.90281-3.1638-7.06667-7.0666-7.06667s-7.0667 3.16386-7.0667 7.06667c0 3.90284 3.1639 7.06664 7.0667 7.06664z"/><path d="m9.71669 33.5673c3.90281 0 7.06661-3.1639 7.06661-7.0666 0-3.9028-3.1638-7.0667-7.06661-7.0667s-7.06667 3.1639-7.06667 7.0667c0 3.9027 3.16386 7.0666 7.06667 7.0666z"/><path d="m43.2827 33.5673c3.9028 0 7.0666-3.1639 7.0666-7.0666 0-3.9028-3.1638-7.0667-7.0666-7.0667s-7.0667 3.1639-7.0667 7.0667c0 3.9027 3.1639 7.0666 7.0667 7.0666z"/><path d="m26.4997 50.3493c3.9028 0 7.0666-3.1638 7.0666-7.0666 0-3.9029-3.1638-7.0667-7.0666-7.0667s-7.0667 3.1638-7.0667 7.0667c0 3.9028 3.1639 7.0666 7.0667 7.0666z"/><path d="m43.2827 50.3493c3.9028 0 7.0666-3.1638 7.0666-7.0666 0-3.9029-3.1638-7.0667-7.0666-7.0667s-7.0667 3.1638-7.0667 7.0667c0 3.9028 3.1639 7.0666 7.0667 7.0666z"/><path d="m33.566 43.46h2.65"/><path d="m43.2841 32.684v3.5333"/><path d="m16.7841 26.5h19.4333"/></g></svg>