<svg fill="none" height="53" viewBox="0 0 53 53" width="53" xmlns="http://www.w3.org/2000/svg" xmlns:xlink="http://www.w3.org/1999/xlink"><mask id="a" height="53" maskUnits="userSpaceOnUse" width="53" x="0" y="0"><path d="m53 0h-53v53h53z" fill="#fff"/></mask><g mask="url(#a)" stroke="#6666fe" stroke-width="1.76667"><path d="m0 26.4813h51.2333"/><path d="m0 .884018c7.31753 0 13.9425 2.867292 18.7381 7.503032 4.7957 4.63575 7.7619 11.03985 7.7619 18.11355 0 7.0738-2.9662 13.4779-7.7619 18.1137-4.7946 4.6357-11.41968 7.503-18.7381 7.503"/><path d="m34.4507 44.1673c9.757 0 17.6666-7.9096 17.6666-17.6666s-7.9096-17.66669-17.6666-17.66669-17.6667 7.90969-17.6667 17.66669 7.9097 17.6666 17.6667 17.6666z"/></g></svg>