<svg fill="none" height="41" viewBox="0 0 41 41" width="41" xmlns="http://www.w3.org/2000/svg" xmlns:xlink="http://www.w3.org/1999/xlink"><clipPath id="a"><path d="m.5.500031h40v40h-40z"/></clipPath><mask id="b" height="41" maskUnits="userSpaceOnUse" width="41" x="0" y="0"><path d="m40.5.500031h-40v39.999969h40z" fill="#fff"/></mask><g clip-path="url(#a)"><g fill="#6666fe" mask="url(#b)"><path d="m21.433 8.89108c3.984 0 7.2138-1.8784 7.2138-4.19552 0-2.31713-3.2298-4.195529-7.2138-4.195529-3.9841 0-7.2138 1.878399-7.2138 4.195529 0 2.31712 3.2297 4.19552 7.2138 4.19552z"/><path d="m21.433 40.4999c3.984 0 7.2138-1.8784 7.2138-4.1955 0-2.3172-3.2298-4.1956-7.2138-4.1956-3.9841 0-7.2138 1.8784-7.2138 4.1956 0 2.3171 3.2297 4.1955 7.2138 4.1955z"/><path d="m11.3785 14.7009c1.992-3.4502 1.9791-7.18692-.0289-8.34627-2.00796-1.15935-5.25062.69777-7.24266 4.14797-1.99203 3.4502-1.9791 7.187.02888 8.3463 2.00799 1.1594 5.25065-.6978 7.24268-4.148z"/><path d="m38.752 30.5051c1.992-3.4502 1.9802-7.1864-.0264-8.3449-2.0066-1.1586-5.2482.6992-7.2402 4.1494-1.9921 3.4502-1.9803 7.1863.0264 8.3449 2.0066 1.1586 5.2482-.6992 7.2402-4.1494z"/><path d="m11.3541 34.6551c2.008-1.1593 2.021-4.8961.0289-8.3463-1.99201-3.4502-5.23467-5.3073-7.24265-4.148-2.00799 1.1594-2.02092 4.8962-.02888 8.3464s5.23469 5.3073 7.24263 4.1479z"/><path d="m38.7302 18.8443c2.0067-1.1585 2.0185-4.8947.0265-8.3448-1.9921-3.45026-5.2336-5.30801-7.2403-4.14945-2.0066 1.15856-2.0184 4.89465-.0264 8.34485 1.992 3.4503 5.2336 5.308 7.2402 4.1494z"/></g></g></svg>