<svg fill="none" height="41" viewBox="0 0 41 41" width="41" xmlns="http://www.w3.org/2000/svg" xmlns:xlink="http://www.w3.org/1999/xlink"><clipPath id="a"><path d="m.5.500031h40v40h-40z"/></clipPath><g clip-path="url(#a)"><path d="m40 20.5c0 10.7696-8.7304 19.5-19.5 19.5-10.76955 0-19.5-8.7304-19.5-19.5 0-10.76952 8.73045-19.49997 19.5-19.49997 10.7696 0 19.5 8.73045 19.5 19.49997z" stroke="#6666fe"/><g fill="#6666fe"><path d="m20.5358 4.95731c-1.9237 0-3.4836 6.97739-3.4836 15.58459 0 8.6071 1.5599 15.5846 3.4836 15.5846s3.4836-6.9775 3.4836-15.5846c0-8.6072-1.5599-15.58459-3.4836-15.58459zm.2405 30.28959c-.22.2934-.44.0733-.44.0733-.8859-1.0265-1.3289-2.9335-1.3289-2.9335-1.5496-4.987-1.1807-15.6945-1.1807-15.6945.7282-8.50068 2.053-10.50879 2.5038-10.9546.046-.0455.1066-.0733.1712-.07852.0645-.00522.1288.01249.1815.05001.6541.4635 1.2027 2.40188 1.2027 2.40188 1.6201 6.01373 1.4734 11.66083 1.4734 11.66083.1467 4.9138-.8118 10.4141-.8118 10.4141-.7378 4.1802-1.7712 5.061-1.7712 5.061z"/><path d="m34.0543 12.7906c-.9578-1.6692-7.7857.4502-15.2551 4.7334-7.4694 4.2831-12.73827 9.1087-11.78119 10.7772.95707 1.6685 7.78559-.4502 15.25509-4.7334 7.4694-4.2831 12.7383-9.1087 11.7812-10.7772zm-26.15264 15.2816c-.36669-.0462-.28386-.3476-.28386-.3476.44981-1.279 1.88122-2.6123 1.88122-2.6123 3.55608-3.826 13.02798-8.8344 13.02798-8.8344 7.735-3.5988 10.1376-3.4469 10.7471-3.2791.0626.0174.117.0565.1535.1102s.0529.1186.0461.1832c-.0732.7984-1.4851 2.2383-1.4851 2.2383-4.4072 4.3996-9.3788 7.0831-9.3788 7.0831-4.1891 2.5734-9.4372 4.478-9.4372 4.478-3.99323 1.439-5.27094.9806-5.27094.9806z"/><path d="m34.0225 28.3602c.9652-1.6648-4.2904-6.5125-11.7336-10.8279-7.4432-4.3153-14.2702-6.461-15.23455-4.7934-.96435 1.6677 4.29035 6.5125 11.73785 10.8279 7.4475 4.3153 14.2659 6.4612 15.2303 4.7934zm-26.32857-14.978c-.14257-.338.15839-.4194.15839-.4194 1.33247-.2517 3.20408.3218 3.20408.3218 5.092 1.1595 14.1716 6.8469 14.1716 6.8469 6.9907 4.8918 8.0628 7.0465 8.2235 7.6581.0163.0627.01.1292-.0179.1877s-.0756.1053-.1346.1321c-.729.3337-2.6814-.1636-2.6814-.1636-6.0175-1.6134-10.83-4.5696-10.83-4.5696-4.324-2.3322-8.5997-5.9207-8.5997-5.9207-3.24889-2.7355-3.49297-4.0696-3.49297-4.0696z"/><path d="m20.4983 22.3378c1.0126 0 1.8335-.8209 1.8335-1.8335s-.8209-1.8335-1.8335-1.8335-1.8335.8209-1.8335 1.8335.8209 1.8335 1.8335 1.8335z"/><path d="m28.018 14.5611c.5873 0 1.0634-.4925 1.0634-1.1001 0-.6075-.4761-1.1001-1.0634-1.1001s-1.0634.4926-1.0634 1.1001c0 .6076.4761 1.1001 1.0634 1.1001z"/><path d="m10.5623 18.2955c.5873 0 1.0634-.4926 1.0634-1.1001 0-.6076-.4761-1.1001-1.0634-1.1001-.58735 0-1.06346.4925-1.06346 1.1001 0 .6075.47611 1.1001 1.06346 1.1001z"/><path d="m18.3357 31.8007c.5873 0 1.0634-.4925 1.0634-1.1001s-.4761-1.1001-1.0634-1.1001-1.0634.4925-1.0634 1.1001.4761 1.1001 1.0634 1.1001z"/></g></g></svg>