<svg fill="none" height="55" viewBox="0 0 55 55" width="55" xmlns="http://www.w3.org/2000/svg"><g stroke="#6666fe" stroke-width="2"><path d="m43.1073 33.8966 9.7016 4.4519c1.5881.7735 1.5881 3.1158 0 3.8892l-23.1069 11.2528c-1.3949.6793-3.0091.6793-4.4041 0l-23.10677-11.2528c-1.588175-.7734-1.588175-3.1157 0-3.8892l8.93337-4.4519"/><path d="m2.19113 16.6515c-1.588175-.7735-1.588175-3.1157 0-3.8892l23.10677-11.25281c1.395-.679321 3.0092-.679322 4.4042 0l23.1068 11.25281c1.5881.7735 1.5881 3.1157 0 3.8892l-23.1069 11.2528c-1.3949.6793-3.0091.6793-4.4041 0z"/><path d="m43.1073 21.1034 9.7016 4.452c1.5881.7735 1.5881 3.1157 0 3.8892l-23.1069 11.2528c-1.3949.6793-3.0091.6793-4.4041 0l-23.10677-11.2528c-1.588175-.7734-1.588175-3.1157 0-3.8892l9.39027-4.452"/></g></svg>