<svg fill="none" height="55" viewBox="0 0 53 55" width="53" xmlns="http://www.w3.org/2000/svg"><g stroke="#6666fe" stroke-width="2"><path d="m0 54h53"/><path d="m44.8334 54c0-10.0933-8.2083-18.2759-18.3333-18.2759-10.1251 0-18.33341 8.1826-18.33341 18.2759"/><path d="m42.3807 45.7759c1.5599-2.6882 2.4527-5.8091 2.4527-9.138 0-10.0934-8.2082-18.2758-18.3334-18.2758s-18.33331 8.1824-18.33331 18.2758c0 3.3289.89278 6.4498 2.45271 9.138"/><path d="m42.3807 28.4138c1.5599-2.6881 2.4527-5.8091 2.4527-9.1379 0-10.09352-8.2082-18.2759-18.3334-18.2759s-18.33331 8.18238-18.33331 18.2759c0 3.3288.89278 6.4498 2.45271 9.1379"/></g></svg>